<svg xmlns="http://www.w3.org/2000/svg" width="405" height="417" viewBox="0 0 405 417" version="1.1"><path d="M 189.043 18.923 L 182.586 19.500 182.845 29.500 C 182.988 35, 183.300 40.175, 183.540 41 C 183.908 42.268, 187.034 42.501, 203.738 42.504 C 224.703 42.508, 230.368 43.274, 248.671 48.578 C 272.428 55.462, 298.334 70.770, 317.160 89.049 L 325.992 97.624 334.746 90.764 C 339.561 86.991, 343.624 83.361, 343.776 82.698 C 344.188 80.898, 329.910 66.766, 319.733 58.901 C 280.558 28.624, 235.316 14.785, 189.043 18.923 M 147.889 27.924 C 121.631 36.789, 96.802 52.215, 76.952 71.996 C 63.768 85.133, 54.481 96.351, 55.467 97.947 C 56.300 99.294, 72.882 112.005, 73.766 111.974 C 74.170 111.960, 76.075 109.628, 78 106.792 C 86.529 94.224, 105.029 77.470, 122.027 66.918 C 132.599 60.356, 150.496 51.667, 158.181 49.365 L 164 47.621 163.891 42.061 C 163.681 31.273, 162.586 24.535, 161 24.262 C 160.175 24.120, 154.275 25.768, 147.889 27.924 M 190.630 65.991 C 182.013 67.079, 174 68.974, 174 69.925 C 174 70.632, 180.634 75.533, 198.093 87.726 L 206.686 93.727 222.770 82.113 C 233.571 74.314, 238.419 70.256, 237.530 69.758 C 231.918 66.613, 203.674 64.344, 190.630 65.991 M 131.763 91.824 C 126.407 95.496, 122.132 98.800, 122.263 99.167 C 122.527 99.908, 135.755 109.596, 155.500 123.507 C 195.296 151.546, 205.992 159, 206.436 159 C 206.891 159, 218.127 151.206, 244.020 132.927 C 263.409 119.240, 288.966 100.505, 288.983 99.967 C 289.003 99.331, 270.379 86, 269.470 86 C 269.123 86, 259.313 92.777, 247.670 101.061 C 236.026 109.344, 222.038 119.235, 216.584 123.040 L 206.669 129.958 203.084 127.753 C 199.853 125.765, 177.584 110.149, 151.882 91.848 C 146.591 88.082, 142.091 85.033, 141.882 85.074 C 141.672 85.115, 137.118 88.153, 131.763 91.824 M 350.444 102.114 C 347.175 104.398, 343.279 107.289, 341.787 108.538 C 340.295 109.787, 338.531 110.990, 337.868 111.211 C 337.100 111.467, 338.125 113.768, 340.695 117.556 C 351.905 134.077, 360.776 157.851, 365.114 183 C 365.833 187.173, 366.405 198.152, 366.403 207.750 L 366.399 225 378.093 225 C 387.833 225, 389.887 224.736, 390.393 223.418 C 391.595 220.285, 390.967 193.829, 389.428 182.795 C 385.439 154.199, 375.952 127.918, 361.789 106.230 L 356.388 97.960 350.444 102.114 M 40.706 121.250 C 34.386 132.646, 32.750 136.374, 28.973 147.987 C 24.545 161.602, 23.525 166.386, 21.513 182.970 C 20.008 195.371, 19.448 220.398, 20.607 223.418 C 21.113 224.737, 23.177 225, 33.025 225 L 44.836 225 44.292 213.750 C 43.085 188.773, 49.733 156.381, 60.421 135.157 L 63.957 128.134 60.229 125.222 C 56.482 122.296, 45.303 115, 44.567 115 C 44.350 115, 42.612 117.813, 40.706 121.250 M 92.331 126.736 C 87.497 134.021, 85 138.300, 85 139.300 C 85 139.537, 90.063 143.254, 96.250 147.559 C 102.438 151.864, 124.248 167.225, 144.718 181.693 C 165.188 196.162, 182.188 208, 182.495 208 C 182.802 208, 182.929 201.376, 182.777 193.279 L 182.500 178.559 167.743 168.029 C 130.879 141.727, 99.821 119.868, 98.704 119.440 C 98.011 119.174, 95.253 122.331, 92.331 126.736 M 292 134.895 C 280.725 143.019, 257.325 159.663, 240 171.882 C 222.675 184.100, 207.713 194.746, 206.750 195.539 C 205.104 196.894, 205 203.010, 205 298.076 L 205 399.171 212.750 398.552 C 217.012 398.212, 222.412 397.696, 224.750 397.406 L 229 396.877 229.025 339.689 L 229.051 282.500 237.275 276.791 C 248.433 269.045, 269.407 254.234, 301.408 231.500 C 316.118 221.050, 329.243 211.825, 330.575 211 C 332.960 209.522, 332.996 209.278, 332.998 194.691 C 333 183.120, 332.727 180.042, 331.750 180.614 C 330.011 181.631, 322.902 186.609, 289 210.546 C 272.775 222.001, 254.100 235.181, 247.500 239.834 C 240.900 244.486, 234.037 249.406, 232.250 250.765 L 229 253.237 229.044 231.369 L 229.087 209.500 246.294 197.265 C 255.757 190.536, 269.125 181.061, 276 176.211 C 316.439 147.680, 323.664 142.543, 325.213 141.220 C 326.803 139.862, 326.810 139.532, 325.313 136.629 C 322.095 130.384, 314.791 120.001, 313.660 120.062 C 313.022 120.096, 303.275 126.771, 292 134.895 M 79.223 195.708 L 79.500 210.417 97.681 223.458 C 107.681 230.631, 122.272 241, 130.106 246.500 C 137.939 252, 149.332 260.061, 155.424 264.413 C 170.527 275.203, 181.882 283, 182.493 283 C 182.772 283, 183 276.501, 183 268.558 L 183 254.117 177.250 249.728 C 174.088 247.314, 161.600 238.444, 149.500 230.017 C 128.717 215.543, 106.701 200.005, 88.331 186.850 C 83.838 183.633, 79.889 181, 79.555 181 C 79.220 181, 79.071 187.619, 79.223 195.708 M 30.670 243.743 L 23.840 244.095 24.532 248.298 C 25.728 255.559, 31.955 275.069, 36.591 286.081 C 43.573 302.668, 54.443 320.563, 65.360 333.444 L 68.703 337.388 77.851 329.626 C 82.883 325.357, 87 321.480, 87 321.010 C 87 320.540, 85.454 318.208, 83.564 315.828 C 67.816 295.995, 57.768 276.380, 49.969 250.250 L 47.805 243 42.653 243.196 C 39.819 243.304, 34.427 243.550, 30.670 243.743 M 360.513 252.339 C 353.769 274.861, 340.041 300.976, 326.323 317.376 C 325 318.958, 324.048 320.600, 324.209 321.025 C 324.369 321.450, 328.550 325.231, 333.500 329.426 L 342.500 337.054 345.892 333.277 C 351.890 326.599, 365.002 305.852, 371.079 293.427 C 374.327 286.786, 378.747 275.983, 380.903 269.419 C 384.834 257.446, 387.775 245.397, 386.944 244.663 C 386.700 244.447, 381.270 244.024, 374.878 243.724 L 363.256 243.177 360.513 252.339 M 324 254.239 C 297.904 272.180, 257.787 300.931, 256.765 302.425 C 256.361 303.016, 256.024 323.011, 256.015 346.858 L 256 390.217 258.750 389.530 C 262.738 388.533, 275.183 383.183, 277.367 381.526 C 279.101 380.209, 279.271 377.809, 279.764 347.576 L 280.295 315.042 299.568 301.027 C 310.168 293.318, 322.027 284.657, 325.921 281.781 L 333 276.550 333 262.775 C 333 255.199, 332.663 249.019, 332.250 249.042 C 331.837 249.064, 328.125 251.403, 324 254.239 M 79 263.915 L 79 277.830 90.359 286.165 C 96.607 290.749, 108.975 299.675, 117.844 306 L 133.969 317.500 133.984 349.233 L 134 380.966 139.215 383.609 C 143.907 385.987, 156.325 391, 157.523 391 C 157.785 391, 158 371.693, 158 348.095 L 158 305.189 150.797 299.845 C 146.836 296.905, 141.903 293.375, 139.836 292 C 137.768 290.625, 123.461 280.613, 108.042 269.750 C 92.623 258.887, 79.780 250, 79.503 250 C 79.227 250, 79 256.262, 79 263.915" stroke="none" fill="#cddce6" fill-rule="evenodd"/><path d="M 0 208.502 L 0 417.005 202.750 416.752 L 405.500 416.500 405.752 208.250 L 406.005 0 203.002 0 L 0 0 0 208.502 M 0.491 209 C 0.491 323.675, 0.607 370.587, 0.750 313.250 C 0.893 255.912, 0.893 162.087, 0.750 104.750 C 0.607 47.412, 0.491 94.325, 0.491 209 M 189.043 18.923 L 182.586 19.500 182.845 29.500 C 182.988 35, 183.300 40.175, 183.540 41 C 183.908 42.268, 187.034 42.501, 203.738 42.504 C 224.703 42.508, 230.368 43.274, 248.671 48.578 C 272.428 55.462, 298.334 70.770, 317.160 89.049 L 325.992 97.624 334.746 90.764 C 339.561 86.991, 343.624 83.361, 343.776 82.698 C 344.188 80.898, 329.910 66.766, 319.733 58.901 C 280.558 28.624, 235.316 14.785, 189.043 18.923 M 147.889 27.924 C 121.631 36.789, 96.802 52.215, 76.952 71.996 C 63.768 85.133, 54.481 96.351, 55.467 97.947 C 56.300 99.294, 72.882 112.005, 73.766 111.974 C 74.170 111.960, 76.075 109.628, 78 106.792 C 86.529 94.224, 105.029 77.470, 122.027 66.918 C 132.599 60.356, 150.496 51.667, 158.181 49.365 L 164 47.621 163.891 42.061 C 163.681 31.273, 162.586 24.535, 161 24.262 C 160.175 24.120, 154.275 25.768, 147.889 27.924 M 190.630 65.991 C 182.013 67.079, 174 68.974, 174 69.925 C 174 70.632, 180.634 75.533, 198.093 87.726 L 206.686 93.727 222.770 82.113 C 233.571 74.314, 238.419 70.256, 237.530 69.758 C 231.918 66.613, 203.674 64.344, 190.630 65.991 M 131.763 91.824 C 126.407 95.496, 122.132 98.800, 122.263 99.167 C 122.527 99.908, 135.755 109.596, 155.500 123.507 C 195.296 151.546, 205.992 159, 206.436 159 C 206.891 159, 218.127 151.206, 244.020 132.927 C 263.409 119.240, 288.966 100.505, 288.983 99.967 C 289.003 99.331, 270.379 86, 269.470 86 C 269.123 86, 259.313 92.777, 247.670 101.061 C 236.026 109.344, 222.038 119.235, 216.584 123.040 L 206.669 129.958 203.084 127.753 C 199.853 125.765, 177.584 110.149, 151.882 91.848 C 146.591 88.082, 142.091 85.033, 141.882 85.074 C 141.672 85.115, 137.118 88.153, 131.763 91.824 M 350.444 102.114 C 347.175 104.398, 343.279 107.289, 341.787 108.538 C 340.295 109.787, 338.531 110.990, 337.868 111.211 C 337.100 111.467, 338.125 113.768, 340.695 117.556 C 351.905 134.077, 360.776 157.851, 365.114 183 C 365.833 187.173, 366.405 198.152, 366.403 207.750 L 366.399 225 378.093 225 C 387.833 225, 389.887 224.736, 390.393 223.418 C 391.595 220.285, 390.967 193.829, 389.428 182.795 C 385.439 154.199, 375.952 127.918, 361.789 106.230 L 356.388 97.960 350.444 102.114 M 40.706 121.250 C 34.386 132.646, 32.750 136.374, 28.973 147.987 C 24.545 161.602, 23.525 166.386, 21.513 182.970 C 20.008 195.371, 19.448 220.398, 20.607 223.418 C 21.113 224.737, 23.177 225, 33.025 225 L 44.836 225 44.292 213.750 C 43.085 188.773, 49.733 156.381, 60.421 135.157 L 63.957 128.134 60.229 125.222 C 56.482 122.296, 45.303 115, 44.567 115 C 44.350 115, 42.612 117.813, 40.706 121.250 M 92.331 126.736 C 87.497 134.021, 85 138.300, 85 139.300 C 85 139.537, 90.063 143.254, 96.250 147.559 C 102.438 151.864, 124.248 167.225, 144.718 181.693 C 165.188 196.162, 182.188 208, 182.495 208 C 182.802 208, 182.929 201.376, 182.777 193.279 L 182.500 178.559 167.743 168.029 C 130.879 141.727, 99.821 119.868, 98.704 119.440 C 98.011 119.174, 95.253 122.331, 92.331 126.736 M 292 134.895 C 280.725 143.019, 257.325 159.663, 240 171.882 C 222.675 184.100, 207.713 194.746, 206.750 195.539 C 205.104 196.894, 205 203.010, 205 298.076 L 205 399.171 212.750 398.552 C 217.012 398.212, 222.412 397.696, 224.750 397.406 L 229 396.877 229.025 339.689 L 229.051 282.500 237.275 276.791 C 248.433 269.045, 269.407 254.234, 301.408 231.500 C 316.118 221.050, 329.243 211.825, 330.575 211 C 332.960 209.522, 332.996 209.278, 332.998 194.691 C 333 183.120, 332.727 180.042, 331.750 180.614 C 330.011 181.631, 322.902 186.609, 289 210.546 C 272.775 222.001, 254.100 235.181, 247.500 239.834 C 240.900 244.486, 234.037 249.406, 232.250 250.765 L 229 253.237 229.044 231.369 L 229.087 209.500 246.294 197.265 C 255.757 190.536, 269.125 181.061, 276 176.211 C 316.439 147.680, 323.664 142.543, 325.213 141.220 C 326.803 139.862, 326.810 139.532, 325.313 136.629 C 322.095 130.384, 314.791 120.001, 313.660 120.062 C 313.022 120.096, 303.275 126.771, 292 134.895 M 79.223 195.708 L 79.500 210.417 97.681 223.458 C 107.681 230.631, 122.272 241, 130.106 246.500 C 137.939 252, 149.332 260.061, 155.424 264.413 C 170.527 275.203, 181.882 283, 182.493 283 C 182.772 283, 183 276.501, 183 268.558 L 183 254.117 177.250 249.728 C 174.088 247.314, 161.600 238.444, 149.500 230.017 C 128.717 215.543, 106.701 200.005, 88.331 186.850 C 83.838 183.633, 79.889 181, 79.555 181 C 79.220 181, 79.071 187.619, 79.223 195.708 M 30.670 243.743 L 23.840 244.095 24.532 248.298 C 25.728 255.559, 31.955 275.069, 36.591 286.081 C 43.573 302.668, 54.443 320.563, 65.360 333.444 L 68.703 337.388 77.851 329.626 C 82.883 325.357, 87 321.480, 87 321.010 C 87 320.540, 85.454 318.208, 83.564 315.828 C 67.816 295.995, 57.768 276.380, 49.969 250.250 L 47.805 243 42.653 243.196 C 39.819 243.304, 34.427 243.550, 30.670 243.743 M 360.513 252.339 C 353.769 274.861, 340.041 300.976, 326.323 317.376 C 325 318.958, 324.048 320.600, 324.209 321.025 C 324.369 321.450, 328.550 325.231, 333.500 329.426 L 342.500 337.054 345.892 333.277 C 351.890 326.599, 365.002 305.852, 371.079 293.427 C 374.327 286.786, 378.747 275.983, 380.903 269.419 C 384.834 257.446, 387.775 245.397, 386.944 244.663 C 386.700 244.447, 381.270 244.024, 374.878 243.724 L 363.256 243.177 360.513 252.339 M 324 254.239 C 297.904 272.180, 257.787 300.931, 256.765 302.425 C 256.361 303.016, 256.024 323.011, 256.015 346.858 L 256 390.217 258.750 389.530 C 262.738 388.533, 275.183 383.183, 277.367 381.526 C 279.101 380.209, 279.271 377.809, 279.764 347.576 L 280.295 315.042 299.568 301.027 C 310.168 293.318, 322.027 284.657, 325.921 281.781 L 333 276.550 333 262.775 C 333 255.199, 332.663 249.019, 332.250 249.042 C 331.837 249.064, 328.125 251.403, 324 254.239 M 79 263.915 L 79 277.830 90.359 286.165 C 96.607 290.749, 108.975 299.675, 117.844 306 L 133.969 317.500 133.984 349.233 L 134 380.966 139.215 383.609 C 143.907 385.987, 156.325 391, 157.523 391 C 157.785 391, 158 371.693, 158 348.095 L 158 305.189 150.797 299.845 C 146.836 296.905, 141.903 293.375, 139.836 292 C 137.768 290.625, 123.461 280.613, 108.042 269.750 C 92.623 258.887, 79.780 250, 79.503 250 C 79.227 250, 79 256.262, 79 263.915" stroke="none" fill="#192e3f" fill-rule="evenodd"/></svg>