<?xml version="1.0" standalone="no"?>
<!DOCTYPE svg PUBLIC "-//W3C//DTD SVG 20010904//EN"
 "http://www.w3.org/TR/2001/REC-SVG-20010904/DTD/svg10.dtd">
<svg version="1.0" xmlns="http://www.w3.org/2000/svg"
 width="405.000000pt" height="417.000000pt" viewBox="0 0 405.000000 417.000000"
 preserveAspectRatio="xMidYMid meet">

<g transform="translate(0.000000,417.000000) scale(0.100000,-0.100000)"
fill="#000000" stroke="none">
<path d="M0 2085 l0 -2085 2025 0 2025 0 0 2085 0 2085 -2025 0 -2025 0 0
-2085z m2220 1894 c346 -32 678 -167 977 -398 102 -79 245 -220 241 -238 -2
-7 -42 -43 -91 -81 l-87 -68 -88 86 c-189 182 -448 335 -685 404 -183 53 -240
61 -450 61 -167 0 -198 2 -202 15 -2 8 -5 60 -7 115 l-2 100 64 6 c112 10 211
9 330 -2z m-589 -114 c4 -33 7 -85 8 -116 l1 -55 -69 -22 c-280 -90 -643 -352
-791 -570 -19 -28 -38 -52 -42 -52 -9 0 -175 127 -183 141 -10 15 83 128 215
259 142 142 297 253 482 346 112 56 330 136 358 131 10 -1 17 -20 21 -62z
m666 -371 c43 -9 81 -19 85 -22 4 -4 -66 -59 -154 -123 l-161 -116 -86 60
c-175 122 -241 171 -241 178 0 9 80 28 166 39 93 12 295 3 391 -16z m-778
-242 c292 -208 480 -340 512 -360 l36 -22 99 70 c54 38 194 137 311 220 116
82 214 150 218 150 9 0 195 -133 195 -140 -1 -5 -18 -18 -200 -150 -235 -170
-618 -440 -626 -440 -2 0 -89 59 -192 132 -103 72 -245 172 -317 223 -192 134
-330 236 -332 243 -2 6 183 139 196 141 2 1 47 -30 100 -67z m2191 -302 c90
-181 154 -391 185 -612 15 -107 21 -371 9 -402 -5 -13 -26 -16 -123 -16 l-117
0 0 173 c0 95 -6 205 -13 247 -43 251 -132 489 -244 654 -26 38 -36 61 -28 64
6 2 24 14 39 27 15 12 54 41 86 64 l60 41 54 -82 c30 -46 71 -117 92 -158z
m-3203 33 c32 -20 75 -49 95 -65 l38 -29 -36 -71 c-107 -212 -173 -536 -161
-785 l5 -113 -118 0 c-98 0 -119 3 -124 16 -20 52 2 420 35 584 17 85 83 278
119 350 38 77 80 150 86 150 2 0 30 -16 61 -37z m660 -131 c92 -65 212 -150
265 -188 53 -38 130 -91 169 -119 40 -27 107 -76 151 -107 l78 -58 0 -145 c0
-80 -2 -145 -5 -145 -3 0 -173 118 -378 263 -205 145 -423 298 -484 341 -62
43 -113 81 -113 83 0 25 123 204 137 199 7 -3 88 -58 180 -124z m2026 51 c24
-38 52 -82 61 -100 l16 -32 -52 -39 c-29 -21 -114 -81 -188 -134 -270 -190
-398 -281 -567 -401 l-172 -122 -1 -219 0 -218 33 24 c17 14 86 63 152 110 66
46 253 178 415 293 339 239 410 289 428 299 9 6 12 -25 12 -141 0 -146 0 -148
-24 -163 -14 -8 -132 -91 -263 -184 -397 -283 -543 -386 -650 -460 l-102 -71
-1 -572 0 -571 -37 -6 c-21 -3 -75 -8 -120 -12 l-83 -6 0 1011 c0 951 1 1012
18 1026 9 8 204 146 432 307 228 162 462 328 520 370 58 42 110 77 117 77 6 1
32 -29 56 -66z m-2305 -605 c49 -35 229 -162 401 -283 173 -121 364 -256 425
-300 l111 -80 3 -148 c1 -81 -1 -147 -5 -146 -5 0 -47 28 -96 62 -48 34 -178
126 -290 205 -111 78 -301 213 -422 300 l-220 157 -3 148 c-1 81 0 147 3 147
3 0 45 -28 93 -62z m-388 -630 c76 -260 163 -428 340 -662 17 -21 30 -42 30
-47 0 -8 -174 -159 -184 -159 -10 0 -136 168 -187 250 -67 109 -137 257 -184
390 -33 97 -75 249 -75 277 0 16 17 18 137 21 l102 2 21 -72z m3369 55 c9 -7
-21 -127 -60 -247 -22 -66 -66 -174 -98 -240 -61 -125 -192 -332 -252 -399
l-34 -38 -90 77 c-49 42 -91 79 -93 84 -2 4 8 20 21 36 137 164 275 425 342
651 l28 91 116 -5 c64 -3 118 -7 120 -10z m-539 -181 l0 -137 -72 -54 c-39
-29 -159 -116 -265 -193 l-193 -141 0 -252 c0 -139 -3 -286 -6 -327 -7 -74 -7
-76 -43 -96 -20 -12 -71 -34 -114 -51 l-77 -29 0 436 c0 241 4 442 8 448 16
24 735 532 755 533 4 1 7 -61 7 -137z m-2227 -83 c166 -117 341 -241 390 -276
l87 -65 0 -429 c0 -236 -2 -429 -5 -429 -12 0 -136 50 -183 74 l-52 26 0 318
0 317 -162 115 c-88 63 -212 153 -274 198 l-114 84 0 139 c0 76 2 139 5 139 3
0 141 -95 308 -211z"/>
</g>
</svg>
